<svg xmlns="http://www.w3.org/2000/svg" width="33.073" height="32.109" viewBox="0 0 33.073 32.109">
  <g id="icon-reddit" transform="translate(-7.464 -63.227)">
    <path id="Path_44315" data-name="Path 44315" d="M39.674,77.113a4.278,4.278,0,0,0-3.315-1.682.572.572,0,0,0-.315.072,4.111,4.111,0,0,0-2.332.821A18.28,18.28,0,0,0,24.768,73.7l1.961-8.732,5.9,1.338c0,.044-.013.086-.013.131a3.253,3.253,0,1,0,.368-1.461L26.9,63.6a1.353,1.353,0,0,0-1.492,1l-2.042,9.092h-.072A18.658,18.658,0,0,0,14.3,76.382a4.056,4.056,0,0,0-2.635-.886h0a4.1,4.1,0,0,0-3.338,1.617,4.214,4.214,0,0,0-.794,3.332A4.068,4.068,0,0,0,9.377,83.2a7.356,7.356,0,0,0-.114,1.3A9.665,9.665,0,0,0,13.7,92.265a18.124,18.124,0,0,0,10.316,3.071,18.213,18.213,0,0,0,10.353-3.072A9.671,9.671,0,0,0,38.8,84.479a7.807,7.807,0,0,0-.115-1.342,3.789,3.789,0,0,0,1.778-2.689A4.219,4.219,0,0,0,39.674,77.113ZM35.823,64.6a1.836,1.836,0,1,1-1.836,1.835A1.837,1.837,0,0,1,35.823,64.6Zm3.285,15.64a2.652,2.652,0,0,1-1.528,1.965.688.688,0,0,0-.331.766,6.136,6.136,0,0,1,.18,1.485,8.249,8.249,0,0,1-3.859,6.687,16.841,16.841,0,0,1-9.554,2.816A16.757,16.757,0,0,1,14.5,91.146a8.245,8.245,0,0,1-3.86-6.667,5.959,5.959,0,0,1,.18-1.439.689.689,0,0,0-.331-.767,2.865,2.865,0,0,1-1.053-4.344,2.736,2.736,0,0,1,2.256-1.058,2.649,2.649,0,0,1,2.04.853.687.687,0,0,0,.892.1,16.97,16.97,0,0,1,8.709-2.755h1.254a16.69,16.69,0,0,1,8.792,2.688.688.688,0,0,0,.877-.079,2.757,2.757,0,0,1,2.056-.8.585.585,0,0,0,.219-.043,2.826,2.826,0,0,1,2.038,1.1A2.878,2.878,0,0,1,39.108,80.242Z" fill="#fff"/>
    <path id="Path_44316" data-name="Path 44316" d="M20.539,85.567a3.439,3.439,0,0,0,0-4.719,3.507,3.507,0,0,0-2.4-1,3.432,3.432,0,0,0-3.322,3.323q0,.041,0,.081a3.462,3.462,0,0,0,1,2.318,3.437,3.437,0,0,0,4.719,0Zm-4.346-2.359a2.089,2.089,0,0,1,.6-1.388,2.067,2.067,0,0,1,1.347-.6,2.1,2.1,0,0,1,1.428.6A1.963,1.963,0,0,1,16.792,84.6,2.084,2.084,0,0,1,16.193,83.208Z" fill="#fff"/>
    <path id="Path_44317" data-name="Path 44317" d="M29.413,88.4a6.182,6.182,0,0,1-3.257,1.493,12.32,12.32,0,0,1-4.312,0A6.186,6.186,0,0,1,18.586,88.4a.687.687,0,0,0-.947,1,7.526,7.526,0,0,0,3.967,1.852,13.751,13.751,0,0,0,4.788,0,7.534,7.534,0,0,0,3.967-1.852.688.688,0,1,0-.948-1Z" fill="#fff"/>
    <path id="Path_44318" data-name="Path 44318" d="M29.781,79.845a3.463,3.463,0,0,0-2.32,1,3.338,3.338,0,0,0,4.719,4.72,3.5,3.5,0,0,0,1-2.4,3.459,3.459,0,0,0-1-2.32A3.5,3.5,0,0,0,29.781,79.845Zm1.426,4.75a1.962,1.962,0,0,1-2.773-2.775,2.067,2.067,0,0,1,1.347-.6,2.1,2.1,0,0,1,1.426.6,2.056,2.056,0,0,1,.6,1.347A2.089,2.089,0,0,1,31.207,84.6Z" fill="#fff"/>
  </g>
</svg>
