<svg xmlns="http://www.w3.org/2000/svg" width="29.929" height="24.576" viewBox="0 0 29.929 24.576">
  <g id="icon-twitter" transform="translate(-8.594 -63.182)">
    <g id="Group_20869" data-name="Group 20869">
      <path id="Path_44319" data-name="Path 44319" d="M18.275,87.758a17.269,17.269,0,0,1-9.367-2.732.687.687,0,0,1,.43-1.262c.429.036.873.053,1.338.053A11.311,11.311,0,0,0,16.139,82.4,6.159,6.159,0,0,1,14.1,81.369a6.442,6.442,0,0,1-2.242-3.178.69.69,0,0,1,.452-.869A6.5,6.5,0,0,1,11.26,76.3a6.649,6.649,0,0,1-1.495-4.156v-.129a.688.688,0,0,1,1.028-.6l.027.015a7.16,7.16,0,0,1-1.054-3.508,6.942,6.942,0,0,1,.93-3.339.687.687,0,0,1,1.127-.087A15.94,15.94,0,0,0,16.9,68.613a15.589,15.589,0,0,0,5.652,1.7q-.02-.292-.019-.583a6.616,6.616,0,0,1,1.866-4.6,6.55,6.55,0,0,1,9.14-.16,11.268,11.268,0,0,0,3.167-1.24.688.688,0,0,1,.994.824,7.092,7.092,0,0,1-.885,1.73q.372-.137.735-.3a.687.687,0,0,1,.848,1.017,13.6,13.6,0,0,1-2.8,2.988c.012.144.017.282.017.415A17.514,17.514,0,0,1,33.6,78.461a16.871,16.871,0,0,1-15.32,9.3Zm-6.28-2.643a16.362,16.362,0,0,0,6.273,1.268,15.5,15.5,0,0,0,14.1-8.544,16.159,16.159,0,0,0,1.879-7.444,4.67,4.67,0,0,0-.048-.63.688.688,0,0,1,.27-.647,12.27,12.27,0,0,0,1.28-1.094q-.582.132-1.172.209a.681.681,0,0,1-.735-.449.689.689,0,0,1,.278-.814,5.578,5.578,0,0,0,1.307-1.135,12.8,12.8,0,0,1-1.978.55.682.682,0,0,1-.632-.205,5.175,5.175,0,0,0-7.435-.1,5.2,5.2,0,0,0-1.471,3.656,7.521,7.521,0,0,0,.1,1.21.681.681,0,0,1-.167.573.658.658,0,0,1-.553.226,17.16,17.16,0,0,1-7.026-1.918,17.37,17.37,0,0,1-4.8-3.653,5.712,5.712,0,0,0-.323,1.73,5.342,5.342,0,0,0,2.329,4.322.688.688,0,0,1-.448,1.248,7.16,7.16,0,0,1-1.777-.36A5.131,5.131,0,0,0,15.282,77.2a.687.687,0,0,1,.01,1.342,7.687,7.687,0,0,1-1.71.185A5.085,5.085,0,0,0,18,81.308a.687.687,0,0,1,.407,1.227A12.285,12.285,0,0,1,11.995,85.115Z" fill="#fff"/>
    </g>
  </g>
</svg>
