<svg xmlns="http://www.w3.org/2000/svg" width="43.917" height="39" viewBox="0 0 43.917 39">
  <path id="icon-help" d="M-5977.762-4903.08a1.043,1.043,0,0,1-.651-.97v-4.86h-1.921a4.672,4.672,0,0,1-4.667-4.667v-15.154a4.673,4.673,0,0,1,4.667-4.667h6.578v-2.935a4.675,4.675,0,0,1,4.67-4.667h22.336a4.674,4.674,0,0,1,4.667,4.667v15.155a4.672,4.672,0,0,1-4.667,4.667h-1.921v7.178a1.045,1.045,0,0,1-.651.97,1.033,1.033,0,0,1-.4.079,1.037,1.037,0,0,1-.745-.314l-7.8-7.913h-2.043v2.934a4.672,4.672,0,0,1-4.667,4.667h-3.912l-7.8,5.662a1.048,1.048,0,0,1-.675.248A1.042,1.042,0,0,1-5977.762-4903.08Zm-5.555-25.651v15.154a2.988,2.988,0,0,0,2.983,2.985h3.605v5.293l7.29-5.293h4.459a2.99,2.99,0,0,0,2.985-2.985v-2.934h-7.092a4.674,4.674,0,0,1-4.67-4.667v-10.536h-6.578A2.986,2.986,0,0,0-5983.317-4928.731Zm11.245-7.6v15.155a2.988,2.988,0,0,0,2.986,2.983h11.519l7.213,7.314v-7.314h3.6a2.989,2.989,0,0,0,2.986-2.983v-15.155a2.99,2.99,0,0,0-2.986-2.984h-22.336A2.989,2.989,0,0,0-5972.073-4936.333Zm13.865,14.812v-2.3h1.684v2.3Zm0-4.123v-2.342a2.146,2.146,0,0,1,2.146-2.145,1.451,1.451,0,0,0,1.45-1.45c0-1.29-1.077-2.871-2.336-2.871h-2.4a2.34,2.34,0,0,0-2.336,2.336h-1.682a4.023,4.023,0,0,1,4.019-4.019h2.4c2.3,0,4.019,2.4,4.019,4.554a3.137,3.137,0,0,1-3.132,3.132.463.463,0,0,0-.463.463v2.342Z" transform="translate(5985.501 4941.501)" fill="#140533" stroke="rgba(0,0,0,0)" stroke-width="1"/>
</svg>
