<svg xmlns="http://www.w3.org/2000/svg" width="39" height="43.632" viewBox="0 0 39 43.632">
  <path id="icon-docs" d="M-5982.021-4898.369a2.984,2.984,0,0,1-2.98-2.98V-4929.8a2.984,2.984,0,0,1,2.98-2.982h5.095v-5.235a2.985,2.985,0,0,1,2.982-2.981h18.384l8.559,8.678v22.755a2.984,2.984,0,0,1-2.98,2.981h-5.1v5.237a2.984,2.984,0,0,1-2.98,2.98Zm-1.318-31.434v28.453a1.321,1.321,0,0,0,1.318,1.318h23.963a1.322,1.322,0,0,0,1.321-1.318v-21.586h-8.075v-8.187h-17.209A1.32,1.32,0,0,0-5983.339-4929.8Zm8.073-8.217v5.235h11.632l8.557,8.679v15.857h5.1a1.321,1.321,0,0,0,1.321-1.319v-21.583h-8.076v-8.189h-17.207A1.322,1.322,0,0,0-5975.266-4938.02Zm12.116,13.424h5.257l-5.257-5.333Zm8.072-8.216h5.261l-5.261-5.336Zm-24.065,28.3a.83.83,0,0,1-.831-.831.828.828,0,0,1,.831-.829h10.862a.829.829,0,0,1,.831.829.831.831,0,0,1-.831.831Zm0-5.117a.829.829,0,0,1-.831-.83.829.829,0,0,1,.831-.831h18.207a.829.829,0,0,1,.831.831.829.829,0,0,1-.831.83Zm0-5.118a.83.83,0,0,1-.831-.83.83.83,0,0,1,.831-.831h18.207a.83.83,0,0,1,.831.831.83.83,0,0,1-.831.83Zm1.03-5.368a1.66,1.66,0,0,1-1.662-1.661v-4.038a1.66,1.66,0,0,1,1.662-1.66h4.037a1.66,1.66,0,0,1,1.66,1.66v4.038a1.66,1.66,0,0,1-1.66,1.661Zm0-1.661h4.037v-4.038h-4.037Z" transform="translate(5985.501 4941.501)" fill="#140533" stroke="rgba(0,0,0,0)" stroke-width="1"/>
</svg>
