<svg xmlns="http://www.w3.org/2000/svg" width="35.67" height="27.527" viewBox="0 0 35.67 27.527">
  <g id="icon-discord" transform="translate(-6.165 -65.875)">
    <g id="Group_20860" data-name="Group 20860">
      <path id="Path_44313" data-name="Path 44313" d="M32.548,93.4h-.106a.781.781,0,0,1-.719-.4,20.282,20.282,0,0,1-1.713-2.791l-.172-.169.036-.4a.681.681,0,0,1,.032-.123,20.752,20.752,0,0,1-11.745-.01.782.782,0,0,1,.036.14l.052.353-.183.191A20.112,20.112,0,0,1,16.3,93.064l-.069.081a.839.839,0,0,1-.6.257l-.2-.031a30.013,30.013,0,0,1-8.782-4.422l-.281-.206-.055-.4a30.68,30.68,0,0,1,.656-9.853A31.946,31.946,0,0,1,11.494,68.4l.181-.2.171-.108a30.655,30.655,0,0,1,7.166-2.209l.12-.01a.858.858,0,0,1,.6.256l.123.166c.235.44.464.9.682,1.375a24.776,24.776,0,0,1,7,0c.218-.476.447-.936.681-1.375l.123-.166a.858.858,0,0,1,.6-.256l.12.01a30.736,30.736,0,0,1,7.167,2.209l.249.187.089.1a29.418,29.418,0,0,1,5.143,19.952l0,.41-.285.206A31.016,31.016,0,0,1,32.65,93.37ZM7.654,87.984a28.6,28.6,0,0,0,7.77,3.943,18.884,18.884,0,0,0,1.152-1.852A17.416,17.416,0,0,1,14.4,88.986l-.13-.1a.8.8,0,0,1-.257-.711l.056-.351.282-.165c.188-.151.358-.283.511-.4a.773.773,0,0,1,.53-.2h.148l.135.061a19.734,19.734,0,0,0,16.71,0l.136-.062h.838l.027.352q.176.123.355.263a.8.8,0,0,1,0,1.2l-.14.109a19.222,19.222,0,0,1-2.118,1.083,18.543,18.543,0,0,0,1.154,1.856,29.632,29.632,0,0,0,7.71-3.9,28.088,28.088,0,0,0-4.841-18.743,29.312,29.312,0,0,0-6.28-1.967c-.228.445-.448.911-.658,1.391l-.215.488-.527-.086a23.4,23.4,0,0,0-7.6,0l-.528.086-.213-.489c-.209-.477-.429-.943-.658-1.39a29.275,29.275,0,0,0-6.272,1.964A30.381,30.381,0,0,0,8.3,78.805,29.288,29.288,0,0,0,7.654,87.984Zm22.1-2.871h-.03a3.637,3.637,0,0,1-2.644-1.282,4.508,4.508,0,0,1-1.106-2.879,4.726,4.726,0,0,1,1.032-2.918,3.812,3.812,0,0,1,2.719-1.241,3.722,3.722,0,0,1,2.765,1.282,4.439,4.439,0,0,1,1.046,2.821A4.522,4.522,0,0,1,32.43,83.83a3.485,3.485,0,0,1-2.644,1.282Zm-.029-6.947a2.4,2.4,0,0,0-1.687.776,3.284,3.284,0,0,0-.691,2.009,3.1,3.1,0,0,0,.764,1.969,2.279,2.279,0,0,0,1.645.817,2.149,2.149,0,0,0,1.628-.8,3.147,3.147,0,0,0,.779-2.043,3.026,3.026,0,0,0-.707-1.914A2.331,2.331,0,0,0,29.726,78.166ZM18.314,85.113h-.03a3.64,3.64,0,0,1-2.645-1.282,4.557,4.557,0,0,1,0-5.814,3.547,3.547,0,0,1,5.41.058,4.028,4.028,0,0,1,1.047,2.849,4.254,4.254,0,0,1-1.047,2.907,3.7,3.7,0,0,1-2.7,1.282Zm-.029-6.947a2.337,2.337,0,0,0-1.63.776,3.19,3.19,0,0,0,.014,3.978,2.286,2.286,0,0,0,1.647.817,2.331,2.331,0,0,0,1.7-.817,2.878,2.878,0,0,0,.7-2A2.675,2.675,0,0,0,20.031,79,2.346,2.346,0,0,0,18.285,78.166Z" fill="#fff"/>
    </g>
  </g>
</svg>
