<svg xmlns="http://www.w3.org/2000/svg" width="30.907" height="30.138" viewBox="0 0 30.907 30.138">
  <g id="icon-github" transform="translate(-8.547 -65.883)">
    <g id="Group_20866" data-name="Group 20866">
      <path id="Path_44314" data-name="Path 44314" d="M28.616,96.021a1.6,1.6,0,0,1-1.207-.423,1.28,1.28,0,0,1-.343-1.037l0-4.948c-.032-1.114-.279-1.873-.715-2.172a.688.688,0,0,1,.342-1.252,13.885,13.885,0,0,0,3.121-.567,4.328,4.328,0,0,0,2.218-1.55A7.23,7.23,0,0,0,32.9,80.25a3.433,3.433,0,0,0-.335-1.623A5.782,5.782,0,0,0,31.552,77.3a.689.689,0,0,1-.129-.794,4.251,4.251,0,0,0,.229-1.2A4.913,4.913,0,0,0,31.4,73.4a2.52,2.52,0,0,0-.875.233,7.684,7.684,0,0,0-1.56.775c-.323.2-.529.33-.63.407a.706.706,0,0,1-.112.106.684.684,0,0,1-.605.11,12.761,12.761,0,0,0-7.113,0,.687.687,0,0,1-.714-.205,12.148,12.148,0,0,0-1.409-.8,3.946,3.946,0,0,0-1.672-.605,4.853,4.853,0,0,0-.243,1.882,7.3,7.3,0,0,0,.2,1.288.688.688,0,0,1-.165.7,3.662,3.662,0,0,0-.857,1.25,4.087,4.087,0,0,0-.311,1.717c.071,2.492.656,4.081,1.738,4.7a8.907,8.907,0,0,0,4.274,1.219.688.688,0,0,1,.41,1.215,2.615,2.615,0,0,0-.716,1.609.685.685,0,0,1-.37.5,5.229,5.229,0,0,1-2.332.43,3.37,3.37,0,0,1-2.666-1.59,2.907,2.907,0,0,1,.3.669,1.788,1.788,0,0,0,1.195,1.182,6.8,6.8,0,0,0,2.028.21c.935-.111,1.084-.12,1.169-.12a.688.688,0,0,1,.688.688v3.631a1.236,1.236,0,0,1-.347.985,1.718,1.718,0,0,1-1.392.417.7.7,0,0,1-.181-.035,15.224,15.224,0,0,1-7.662-5.609,15.84,15.84,0,0,1-2.927-9.265A14.928,14.928,0,0,1,23.808,65.883h.023a16.823,16.823,0,0,1,7.88,1.989,15.677,15.677,0,0,1,5.616,5.423,15.369,15.369,0,0,1,2.127,7.794,16.131,16.131,0,0,1-2.863,9.277,15.254,15.254,0,0,1-7.6,5.614.723.723,0,0,1-.184.036C28.738,96.019,28.677,96.021,28.616,96.021Zm-9.135-1.375a.678.678,0,0,0,.2-.013l0-2.891-.364.042a8.125,8.125,0,0,1-2.51-.254,3.176,3.176,0,0,1-2.146-2.1.593.593,0,0,1-.026-.094c-.027-.06-.114-.246-.4-.752a3.271,3.271,0,0,0-.975-1.018A2.3,2.3,0,0,1,12.671,87a.846.846,0,0,1-.277-.915c.185-.548.827-.636,1.216-.663a2.374,2.374,0,0,1,1.229.275,3.4,3.4,0,0,1,1.768,1.594c.562.841,1.151,1.279,1.737,1.279a4.977,4.977,0,0,0,1.422-.168,5,5,0,0,1,.311-.955,9.8,9.8,0,0,1-3.7-1.293c-1.532-.883-2.326-2.805-2.414-5.869a5.416,5.416,0,0,1,.421-2.272,4.657,4.657,0,0,1,.879-1.4c-.048-.243-.1-.6-.165-1.157a6.72,6.72,0,0,1,.452-2.919.687.687,0,0,1,.536-.453,4.49,4.49,0,0,1,2.959.739c.73.38,1.153.621,1.41.789a14.172,14.172,0,0,1,7.193,0c.152-.1.341-.22.574-.364a8.931,8.931,0,0,1,1.786-.891,3.237,3.237,0,0,1,2.076-.262.691.691,0,0,1,.482.442,6.735,6.735,0,0,1,.451,2.921,8.941,8.941,0,0,1-.2,1.182,6.848,6.848,0,0,1,.95,1.333,4.8,4.8,0,0,1,.5,2.291,8.368,8.368,0,0,1-1.134,4.62,5.761,5.761,0,0,1-2.922,2.051,14.67,14.67,0,0,1-2.191.491,5.765,5.765,0,0,1,.413,2.166v5.021l0,.019a1.117,1.117,0,0,0,.2.013,13.889,13.889,0,0,0,6.834-5.077,14.751,14.751,0,0,0,2.609-8.478,13.982,13.982,0,0,0-1.927-7.081,14.3,14.3,0,0,0-5.111-4.938,15.46,15.46,0,0,0-7.218-1.814,13.556,13.556,0,0,0-13.9,13.854,14.467,14.467,0,0,0,2.668,8.457A13.867,13.867,0,0,0,19.481,94.646Z" fill="#fff"/>
    </g>
  </g>
</svg>
